<svg xmlns="http://www.w3.org/2000/svg" version="1.1" xmlns:xlink="http://www.w3.org/1999/xlink" xmlns:svgjs="http://svgjs.dev/svgjs" width="1000" height="1000" viewBox="0 0 1000 1000"><rect width="1000" height="1000" fill="#77d4fc"></rect><g transform="matrix(0.7,0,0,0.7,149.5757576827478,329.8677828348188)"><svg viewBox="0 0 396 193" data-background-color="#77d4fc" preserveAspectRatio="xMidYMid meet" height="487" width="1000" xmlns="http://www.w3.org/2000/svg" xmlns:xlink="http://www.w3.org/1999/xlink"><g id="tight-bounds" transform="matrix(1,0,0,1,0.24000006052585832,-0.17991225321215154)"><svg viewBox="0 0 395.52 193.3598245064243" height="193.3598245064243" width="395.52"><g><svg viewBox="0 0 395.52 193.3598245064243" height="193.3598245064243" width="395.52"><g><svg viewBox="0 0 395.52 193.3598245064243" height="193.3598245064243" width="395.52"><g><svg viewBox="0 0 395.52 193.3598245064243" height="193.3598245064243" width="395.52"><g><svg viewBox="0 0 395.52 193.3598245064243" height="193.3598245064243" width="395.52"><g transform="matrix(1,0,0,1,0,0)"><svg width="395.52" viewBox="1.100000023841858 -38.09000015258789 77.9000015258789 38.09000015258789" height="193.3598245064243" data-palette-color="#000000"><path d="M24.32 0L9.55 0 9.55-4.27 13.35-5 13.35-30.05 6.88-30.05 6.49-25.81 1.1-25.81 1.1-35.55 32.81-35.55 32.81-25.81 27.39-25.81 27-30.05 20.48-30.05 20.48-5 24.32-4.27 24.32 0ZM47.04 0L33.05 0 33.05-4.27 36.5-5 36.5-21.39 32.69-22.12 32.69-26.42 43.63-26.42 43.63-5 47.04-4.27 47.04 0ZM43.63-32.01L36.25-32.01 36.25-38.09 43.63-38.09 43.63-32.01ZM62.57 0L49.14 0 49.14-4.27 52.56-5 52.56-21.39 48.77-22.12 48.77-26.42 59.2-26.42 59.52-22.63Q60.83-24.66 62.78-25.78 64.72-26.9 67.21-26.9L67.21-26.9Q71.14-26.9 73.36-24.39 75.58-21.88 75.58-16.5L75.58-16.5 75.58-5 79-4.27 79 0 65.38 0 65.38-4.27 68.43-5 68.43-16.48Q68.43-19.14 67.38-20.25 66.33-21.36 64.25-21.36L64.25-21.36Q62.71-21.36 61.58-20.72 60.44-20.07 59.69-18.87L59.69-18.87 59.69-5 62.57-4.27 62.57 0Z" opacity="1" transform="matrix(1,0,0,1,0,0)" fill="#000000" class="undefined-text-0" data-fill-palette-color="primary" id="text-0"></path></svg></g></svg></g></svg></g></svg></g></svg></g><defs></defs></svg><rect width="395.52" height="193.3598245064243" fill="none" stroke="none" visibility="hidden"></rect></g></svg></g></svg>